<svg xmlns="http://www.w3.org/2000/svg" width="934.25" height="273.438" viewBox="0 0 934.25 273.438">
  <metadata><?xpacket begin="﻿" id="W5M0MpCehiHzreSzNTczkc9d"?>
<x:xmpmeta xmlns:x="adobe:ns:meta/" x:xmptk="Adobe XMP Core 5.6-c138 79.159824, 2016/09/14-01:09:01        ">
   <rdf:RDF xmlns:rdf="http://www.w3.org/1999/02/22-rdf-syntax-ns#">
      <rdf:Description rdf:about=""/>
   </rdf:RDF>
</x:xmpmeta>
                                                                                                    
                                                                                                    
                                                                                                    
                                                                                                    
                                                                                                    
                                                                                                    
                                                                                                    
                                                                                                    
                                                                                                    
                                                                                                    
                                                                                                    
                                                                                                    
                                                                                                    
                                                                                                    
                                                                                                    
                                                                                                    
                                                                                                    
                                                                                                    
                                                                                                    
                                                                                                    
                           
<?xpacket end="w"?></metadata>
<defs>
    <style>
      .cls-1 {
        fill: #2c414e;
        fill-rule: evenodd;
      }
    </style>
  </defs>
  <path class="cls-1" d="M21.2,287.183a10.948,10.948,0,0,1-10.945-10.946h0V24.709A10.947,10.947,0,0,1,21.2,13.762H933.54a10.949,10.949,0,0,1,10.947,10.946h0V276.237a10.951,10.951,0,0,1-10.947,10.946H21.2ZM13.387,24.709V276.237a7.826,7.826,0,0,0,7.816,7.818H933.54a7.832,7.832,0,0,0,7.82-7.818h0V24.709a7.834,7.834,0,0,0-7.82-7.818H21.2a7.828,7.828,0,0,0-7.816,7.818h0Z" transform="translate(-10.25 -13.75)"/>
</svg>
